<svg preserveAspectRatio="none" width="100%" height="100%" overflow="visible" style="display: block;" viewBox="0 0 17 17" fill="none" xmlns="http://www.w3.org/2000/svg">
<path id="Vector" d="M8.33333 0C3.75 0 0 3.74167 0 8.35C0 12.5167 3.05 15.975 7.03333 16.6V10.7667H4.91667V8.35H7.03333V6.50833C7.03333 4.41667 8.275 3.26667 10.1833 3.26667C11.0917 3.26667 12.0417 3.425 12.0417 3.425V5.48333H10.9917C9.95833 5.48333 9.63333 6.125 9.63333 6.78333V8.35H11.95L11.575 10.7667H9.63333V16.6C11.597 16.2899 13.3852 15.2879 14.6749 13.775C15.9647 12.2622 16.6711 10.338 16.6667 8.35C16.6667 3.74167 12.9167 0 8.33333 0Z" fill="var(--fill-0, white)"/>
</svg>
